<?xml version="1.0" encoding="UTF-8" standalone="no"?>
<!-- Generator: Adobe Illustrator 19.0.0, SVG Export Plug-In . SVG Version: 6.00 Build 0)  -->

<svg
   xmlns:dc="http://purl.org/dc/elements/1.1/"
   xmlns:cc="http://creativecommons.org/ns#"
   xmlns:rdf="http://www.w3.org/1999/02/22-rdf-syntax-ns#"
   xmlns:svg="http://www.w3.org/2000/svg"
   xmlns="http://www.w3.org/2000/svg"
   xmlns:sodipodi="http://sodipodi.sourceforge.net/DTD/sodipodi-0.dtd"
   xmlns:inkscape="http://www.inkscape.org/namespaces/inkscape"
   version="1.1"
   id="Layer_1"
   x="0px"
   y="0px"
   viewBox="0 0 496.162 496.162"
   style="enable-background:new 0 0 496.162 496.162;"
   xml:space="preserve"
   sodipodi:docname="rlgl.svg"
   inkscape:version="0.92.3 (2405546, 2018-03-11)"><metadata
   id="metadata59"><rdf:RDF><cc:Work
       rdf:about=""><dc:format>image/svg+xml</dc:format><dc:type
         rdf:resource="http://purl.org/dc/dcmitype/StillImage" /></cc:Work></rdf:RDF></metadata><defs
   id="defs57" /><sodipodi:namedview
   pagecolor="#ffffff"
   bordercolor="#666666"
   borderopacity="1"
   objecttolerance="10"
   gridtolerance="10"
   guidetolerance="10"
   inkscape:pageopacity="0"
   inkscape:pageshadow="2"
   inkscape:window-width="838"
   inkscape:window-height="480"
   id="namedview55"
   showgrid="false"
   inkscape:zoom="0.47565111"
   inkscape:cx="248.08099"
   inkscape:cy="248.08099"
   inkscape:window-x="2881"
   inkscape:window-y="257"
   inkscape:window-maximized="0"
   inkscape:current-layer="Layer_1" />
<path
   style="fill:#337180;stroke-width:0.88559228"
   d="m 247.02627,14.717127 c -121.33058,0 -219.693313,98.355643 -219.693313,219.700393 0,121.33057 98.362733,219.69685 219.693313,219.69685 121.33766,0 219.70039,-98.36628 219.70039,-219.69685 0,-121.34475 -98.36273,-219.700393 -219.70039,-219.700393 z"
   id="path2"
   inkscape:connector-curvature="0" />
<path
   style="fill:#d3d3d3;stroke-width:0.90713316"
   d="m 229.787,246.881 v 204.57719 c 6.041,0.36207 12.139,0.5538 18.29,0.5538 5.371,0 10.696,-0.15635 15.983,-0.43366 V 246.881 Z"
   id="path4"
   inkscape:connector-curvature="0" />
<path
   style="fill:#eaeaea;stroke-width:0.90713316"
   d="m 229.787,246.881 v 204.57719 c 6.041,0.36207 12.139,0.5538 18.29,0.5538 V 246.881 Z"
   id="path6"
   inkscape:connector-curvature="0" />
<path
   style="fill:#e5e5e5;stroke-width:0.97107792"
   d="m 248.081,42.593907 c -53.4177,0 -96.72809,22.939871 -96.72809,51.237772 V 326.9198 c 0,28.2979 43.31039,51.23777 96.72809,51.23777 53.4177,0 96.72809,-22.93987 96.72809,-51.23777 V 93.831679 c 0,-28.297901 -43.31039,-51.237772 -96.72809,-51.237772 z"
   id="path8"
   inkscape:connector-curvature="0" />
<path
   style="fill:#3b3b3b;stroke-width:0.96465236"
   d="m 248.081,65.208194 c -48.07352,0 -87.04988,20.566786 -87.04988,45.937566 v 208.97285 c 0,25.3708 38.97636,45.93758 87.04988,45.93758 48.07352,0 87.04988,-20.56678 87.04988,-45.93758 V 111.14576 c 0,-25.37078 -38.97636,-45.937566 -87.04988,-45.937566 z"
   id="path10"
   inkscape:connector-curvature="0" />
<circle
   style="fill:#ea4949;stroke-width:1.34224808"
   cx="250.18338"
   cy="143.91194"
   id="circle12"
   r="57.716671"
   inkscape:transform-center-x="10.511907"
   inkscape:transform-center-y="2.1023814" />
<path
   style="fill:#f25f5f;stroke-width:1.34224808"
   d="m 285.62544,108.46856 c -19.57401,-19.574007 -51.31146,-19.574007 -70.88547,0 -19.57534,19.574 -19.57534,51.31145 0,70.88681 19.57535,19.574 90.46082,-51.31147 70.88547,-70.88681 z"
   id="path14"
   inkscape:connector-curvature="0"
   inkscape:transform-center-x="16.161193"
   inkscape:transform-center-y="-3.5459238" />
<circle
   style="fill:#2bbf60;stroke-width:1.36669445"
   cx="249.21809"
   cy="275.94055"
   r="58.76786"
   id="circle16" />


<path
   style="fill:#3cce6c;stroke-width:1.36669445"
   d="m 285.30567,240.53499 c -19.93051,-19.93051 -52.246,-19.93051 -72.1765,0 -19.93187,19.9305 -19.93187,52.24599 0,72.17786 19.93187,19.93051 92.10837,-52.24599 72.1765,-72.17786 z"
   id="path22"
   inkscape:connector-curvature="0" />
<g
   id="g24">
</g>
<g
   id="g26">
</g>
<g
   id="g28">
</g>
<g
   id="g30">
</g>
<g
   id="g32">
</g>
<g
   id="g34">
</g>
<g
   id="g36">
</g>
<g
   id="g38">
</g>
<g
   id="g40">
</g>
<g
   id="g42">
</g>
<g
   id="g44">
</g>
<g
   id="g46">
</g>
<g
   id="g48">
</g>
<g
   id="g50">
</g>
<g
   id="g52">
</g>
</svg>