<?xml version="1.0" standalone="no"?>
<!DOCTYPE svg PUBLIC "-//W3C//DTD SVG 20010904//EN"
 "http://www.w3.org/TR/2001/REC-SVG-20010904/DTD/svg10.dtd">
<svg version="1.0" xmlns="http://www.w3.org/2000/svg"
 width="700.000000pt" height="700.000000pt" viewBox="0 0 700.000000 700.000000"
 preserveAspectRatio="xMidYMid meet">
<metadata>
Created by potrace 1.11, written by Peter Selinger 2001-2013
</metadata>
<g transform="translate(0.000000,700.000000) scale(0.100000,-0.100000)"
fill="#000000" stroke="none">
<path d="M3249 6786 c-2 -2 -40 -7 -83 -11 -43 -4 -86 -8 -95 -10 -9 -1 -38
-6 -64 -9 -27 -4 -59 -9 -70 -12 -12 -2 -35 -7 -52 -9 -16 -3 -75 -16 -130
-30 -550 -132 -1052 -414 -1459 -820 -102 -102 -124 -126 -206 -225 -185 -222
-358 -510 -465 -771 -14 -35 -30 -73 -35 -84 -57 -126 -148 -483 -175 -686 -3
-24 -8 -60 -10 -79 -22 -165 -23 -570 -1 -685 2 -11 7 -47 11 -80 4 -33 9 -69
10 -80 8 -61 39 -204 65 -300 237 -881 841 -1607 1663 -2000 73 -34 173 -77
222 -95 50 -18 99 -36 110 -40 53 -21 171 -56 253 -75 9 -3 35 -9 57 -15 44
-11 244 -45 315 -54 115 -14 218 -20 375 -20 205 0 319 8 475 34 30 5 71 12
90 15 131 21 540 139 575 165 6 4 21 11 35 15 40 11 331 155 378 186 24 16 45
29 49 29 13 0 238 157 338 236 141 112 376 348 487 490 179 229 321 468 435
734 8 19 19 44 24 55 48 111 146 459 165 590 5 28 9 52 9 55 1 3 5 32 9 65 5
33 10 68 12 79 21 118 21 582 -1 707 -2 13 -11 74 -20 134 -9 61 -20 124 -25
140 -5 17 -12 42 -15 58 -13 70 -18 87 -41 167 -14 47 -28 94 -31 105 -2 11
-8 29 -13 40 -4 11 -27 70 -51 130 -49 127 -137 313 -191 402 -21 35 -38 65
-38 67 0 14 -230 342 -250 356 -4 3 -30 32 -57 65 -87 104 -258 272 -383 375
-231 191 -561 385 -835 490 -79 31 -122 46 -205 72 -93 28 -265 72 -325 83
-123 21 -218 36 -265 41 -60 7 -565 16 -571 10z"/>
</g>
</svg>
